# xmcd CD database file
#
# Track frame offsets:
#	150
#	10500
#	25725
#	31125
#	45675
#	54450
#	63900
#	81900
#	94275
#	104100
#	114600
#	124875
#	134175
#	137325
#	144375
#	149850
#	158325
#	163275
#	165900
#	169575
#	185550
#	192300
#	200250
#	224475
#	243900
#	253350
#	265425
#	281100
#	293925
#	300450
#	310050
#
# Disc length: 4322 seconds
#
# Revision: 0
# Processed by: cddbd v1.5.1PL0 Copyright (c) Steve Scherf et al.
# Submitted via: CDex 1.51
#
DISCID=d310e01f
DTITLE=Sonoton Authentic Series - SAS 035 - Authentic Austria
DYEAR=1989
DGENRE=Contentum
TTITLE0=Alpine Region - Blue Danbue polka
TTITLE1=Alpine Region - Wildenauer Sängermarsch
TTITLE2=Alpine Region - Zwiefacher
TTITLE3=Alpine Region - Hackbrett Hansl
TTITLE4=Alpine Region - Auf der Hauseralm
TTITLE5=Alpine Region - Hofkirchner polka
TTITLE6=Alpine Region - An der grossen mühl
TTITLE7=Alpine Region - Haferlgucker
TTITLE8=Alpine Region - Almfrieden
TTITLE9=Alpine Region - Tiroler landler
TTITLE10=Alpine Region - Herbstwald
TTITLE11=Alpine Region - Lechtaler polka
TTITLE12=Alpine Region - Hochgebirgswalzer
TTITLE13=Alpine Region - Harmonika sepp
TTITLE14=Alpine Region - Hüttenjodler
TTITLE15=Alpine Region - Jodelklang
TTITLE16=Alpine Region - Tiroler jodler 1
TTITLE17=Alpine Region - Tiroler jodler 2
TTITLE18=Alpine Region - Alpenjodler
TTITLE19=Vienna - Wiener blut 1
TTITLE20=Vienna - Wiener blut 2
TTITLE21=Vienna - Tick tack polka
TTITLE22=Vienna - Fledermaus quadrille
TTITLE23=Vienna - Ballett walzer
TTITLE24=Vienna - Es war im Wienerwald
TTITLE25=Vienna - D'weinstrassler
TTITLE26=Vienna - Spieg'l grund-tänze
TTITLE27=Vienna - Sieveringer Tanz
TTITLE28=Vienna - Donauwalzer
TTITLE29=Vienna - I lass mir vom wirt a entschuldigung schreiben
TTITLE30=Vienna - Fiaker tanz
EXTD=YEAR: 1989
EXTT0=
EXTT1=
EXTT2=
EXTT3=
EXTT4=
EXTT5=
EXTT6=
EXTT7=
EXTT8=
EXTT9=
EXTT10=
EXTT11=
EXTT12=
EXTT13=
EXTT14=
EXTT15=
EXTT16=
EXTT17=
EXTT18=
EXTT19=
EXTT20=
EXTT21=
EXTT22=
EXTT23=
EXTT24=
EXTT25=
EXTT26=
EXTT27=
EXTT28=
EXTT29=
EXTT30=
PLAYORDER=
